<?xml version="1.0" encoding="UTF-8" standalone="no"?>
<!-- Created with Inkscape (http://www.inkscape.org/) -->

<svg
   xmlns:dc="http://purl.org/dc/elements/1.1/"
   xmlns:cc="http://creativecommons.org/ns#"
   xmlns:rdf="http://www.w3.org/1999/02/22-rdf-syntax-ns#"
   xmlns:svg="http://www.w3.org/2000/svg"
   xmlns="http://www.w3.org/2000/svg"
   xmlns:sodipodi="http://sodipodi.sourceforge.net/DTD/sodipodi-0.dtd"
   xmlns:inkscape="http://www.inkscape.org/namespaces/inkscape"
   id="svg3312"
   version="1.1"
   inkscape:version="0.48.2 r9819"
   width="186.00092"
   height="211.98238"
   sodipodi:docname="zarafa_logo-2015.png">
  <metadata
     id="metadata3318">
    <rdf:RDF>
      <cc:Work
         rdf:about="">
        <dc:format>image/svg+xml</dc:format>
        <dc:type
           rdf:resource="http://purl.org/dc/dcmitype/StillImage" />
        <dc:title></dc:title>
      </cc:Work>
    </rdf:RDF>
  </metadata>
  <defs
     id="defs3316" />
  <sodipodi:namedview
     pagecolor="#ffffff"
     bordercolor="#666666"
     borderopacity="1"
     objecttolerance="10"
     gridtolerance="10"
     guidetolerance="10"
     inkscape:pageopacity="0"
     inkscape:pageshadow="2"
     inkscape:window-width="640"
     inkscape:window-height="480"
     id="namedview3314"
     showgrid="false"
     fit-margin-top="0"
     fit-margin-left="0"
     fit-margin-right="0"
     fit-margin-bottom="0"
     inkscape:zoom="0.41805226"
     inkscape:cx="309.17614"
     inkscape:cy="100.42677"
     inkscape:window-x="0"
     inkscape:window-y="0"
     inkscape:window-maximized="0"
     inkscape:current-layer="svg3312" />
  <path
     style="fill:#ffffff"
     d="m 7.28413,211.32025 c -1.21872,-0.23589 -3.35622,-1.78414 -4.75,-3.44054 L 0,204.86806 0,183.44478 c 0,-11.7828 0.3816,-21.42327 0.84801,-21.42327 0.4664,0 3.94771,1.27037 7.73624,2.82305 8.27431,3.39112 8.75211,4.36259 10.18475,20.7079 1.12882,12.87888 3.01872,17.44906 9.44284,22.83485 L 32.5,211.98237 21,211.86576 c -6.325,-0.0641 -12.49714,-0.30962 -13.71587,-0.54551 z m 38.9191,-0.41415 c -9.52538,-1.58542 -15.74759,-6.46337 -19.94809,-15.63847 -4.33159,-9.46144 -4.29729,-27.92001 0.0639,-34.39159 3.53899,-5.25151 7.8872,-7.1714 17.3691,-7.66907 10.30599,-0.54093 15.32702,1.13465 21.47705,7.16713 6.33973,6.21857 15.74771,18.19472 17.40056,22.15055 3.3003,7.89872 0.3724,18.42823 -6.40482,23.03347 l -3.62521,2.46339 53.67543,0 53.67543,0 1.55671,-2.22251 c 1.37149,-1.95807 1.5567,-10.22708 1.5567,-69.5 0,-37.00262 -0.3375,-67.27262 -0.75,-67.26666 -0.4125,0.006 -2.325,2.74681 -4.25,6.09078 -4.30426,7.47706 -12.93046,15.89839 -16.28515,15.89839 -3.01524,0 -4.55351,-1.73101 -9.33092,-10.5 -2.0975,-3.85 -5.29195,-8.94697 -7.09878,-11.3266 C 143.47832,66.81529 142,63.81904 142,62.53658 c 0,-3.91565 19.91371,-27.515071 23.21782,-27.515071 2.28095,0 17.1932,14.007229 19.37628,18.20034 1.17092,2.249012 1.4059,15.085121 1.4059,76.799661 0,81.58437 0.21954,78.68201 -6.11884,80.89158 -3.88038,1.35271 -125.54694,1.34635 -133.67793,-0.007 z M 89,185.73819 c 0,-4.11285 -3.6523,-12.36773 -8.33776,-18.8449 -6.64884,-9.19131 -6.91546,-9.95075 -5.50975,-15.69382 1.5749,-6.43432 4.72828,-12.40418 11.01189,-20.84725 2.93459,-3.94311 6.10219,-8.55561 7.03911,-10.25 0.93692,-1.69439 2.37643,-3.08071 3.19892,-3.08071 0.84918,0 2.78594,2.7009 4.48172,6.25 3.75044,7.84927 8.43486,13.34869 15.53692,18.24006 l 5.54925,3.82192 -2.17721,3.59401 C 109.28527,166.27316 105.75076,171.33061 99.64111,177.76248 92.09416,185.70745 89,188.02659 89,185.73819 z M 9.03002,159.7422 C 5.22436,157.81652 2.31734,152.66485 1.1037,145.69559 0.3731,141.50016 0,116.79513 0,72.61267 L 0,5.8676628 2.92308,2.9445858 5.84615,0.02150881 l 70.0055,0 c 79.2506,0 71.54033,-0.884883 75.77779,8.69677999 1.94751,4.4036482 3.1237,5.6511752 7.34471,7.7901192 6.80491,3.448311 6.84114,6.233668 0.18482,14.211185 -7.55759,9.057691 -22.53278,22.820371 -27.38866,25.171067 -10.34151,5.00624 -12.78889,2.17164 -10.9501,-12.682625 1.57056,-12.68738 1.58141,-12.555775 -1.32021,-16.004157 -1.375,-1.634094 -2.5,-3.861163 -2.5,-4.949042 0,-1.288392 3.48626,-4.855995 10,-10.233327 5.5,-4.5404522 10,-8.4229092 10,-8.6276832 0,-0.204775 -29.04545,-0.372317 -64.54545,-0.372317 l -64.54546,0 L 5.45455,5.4760538 3,7.9305998 3,62.18846 l 0,54.25787 4.75,-4.58746 c 8.91917,-8.61396 24.33756,-20.90128 25.40193,-20.24346 0.72182,0.44611 0.85118,5.50508 0.40354,15.78134 -1.63141,37.45155 -4.29791,47.3329 -13.95654,51.71933 -4.82063,2.18926 -7.20105,2.33028 -10.56891,0.62612 z m 48.61422,-13.40978 c -0.379,-0.379 -4.20792,-0.58475 -8.50871,-0.45722 -10.83368,0.32125 -10.67806,0.60047 -10.46032,-18.76819 0.19194,-17.07357 2.6913,-41.61727 4.45434,-43.7416 1.77658,-2.14065 4.22355,-1.61 12.05498,2.61422 4.03596,2.17697 11.0897,4.85417 15.67498,5.94933 10.35592,2.47344 12.78047,4.03533 15.40977,9.92689 2.70887,6.06988 2.53322,9.92055 -0.7257,15.90825 -2.32222,4.26669 -12.90282,18.32831 -19.94537,26.50741 -2.23681,2.5978 -6.35106,3.66382 -7.95397,2.06091 z m 63.06161,-10.77284 c -12.86196,-10.47728 -18.66979,-22.6351 -18.69398,-39.13303 -0.0113,-7.70345 0.17446,-8.38326 3.84075,-14.05571 6.57774,-10.17705 16.2088,-16.31079 23.47149,-14.94831 8.43123,1.58171 22.17589,22.20816 22.17589,33.27909 0,4.49595 -0.5553,5.94879 -4.20439,11 -2.31241,3.20094 -7.68691,10.88239 -11.94334,17.06989 -4.25642,6.1875 -8.0607,11.25 -8.45394,11.25 -0.39325,0 -3.17986,-2.00787 -6.19248,-4.46193 z M 72.19133,85.45868 C 57.96948,81.25411 52.61631,77.47548 54.88255,73.24097 c 0.94428,-1.7644 28.34384,-25.401548 30.2127,-26.064002 3.56173,-1.262521 9.99225,12.266772 10.6742,22.457672 0.60172,8.99184 -0.92627,13.90179 -5.12254,16.46053 -4.10776,2.50475 -8.32198,2.35941 -18.45558,-0.63649 z M 104.2299,65.76622 C 100.85434,62.17311 92.79555,43.97224 93.44119,41.399804 c 0.72653,-2.89471 13.35956,-13.378295 16.12125,-13.378295 1.17017,0 2.98483,0.95379 4.03257,2.119533 1.68838,1.878529 1.88054,3.555702 1.68993,14.75 -0.22986,13.499218 -1.85891,20.296908 -5.30626,22.141878 -2.65095,1.41875 -3.37603,1.25898 -5.74878,-1.2667 z"
     id="path3322"
     inkscape:connector-curvature="0"
     sodipodi:nodetypes="sscssssscssssssssscccsscsssssssssssssssssscsssssscccssssssssssscccccsssssssssssssssssssssssssssssssssssss" />
</svg>
